<svg id="Layer_1" data-name="Layer 1" xmlns="http://www.w3.org/2000/svg" viewBox="0 0 76 67"><defs><style>.cls-1{fill:#fff;stroke:#fff;stroke-miterlimit:10;stroke-width:0.5px;}</style></defs><path class="cls-1" d="M23.36,25.17a.93.93,0,0,1,.93-.92h22a.93.93,0,0,1,0,1.85h-22a.93.93,0,0,1-.93-.93Zm.93,8.94h22a.92.92,0,0,0,0-1.84h-22a.93.93,0,0,0-.93.92.92.92,0,0,0,.93.92Zm9.53,6.17H24.29a.93.93,0,1,0,0,1.85h9.53a.93.93,0,0,0,0-1.85Zm-1.24,8H24.29a.93.93,0,1,0,0,1.85h8.29a.93.93,0,0,0,0-1.85ZM58.7,49.37A11.62,11.62,0,0,1,39.27,58H17.84a.92.92,0,0,1-.92-.92V13.82a.92.92,0,0,1,.92-.93h7.81V10.35a.91.91,0,0,1,.93-.92h3.78V9.37a5,5,0,0,1,9.9,0v.06H44a.91.91,0,0,1,.92.92v2.54h7.81a.92.92,0,0,1,.92.93v26a11.6,11.6,0,0,1,5,9.55ZM27.5,15.8H43.11V11.28H39.19a.92.92,0,0,1-.89-1.16,3,3,0,0,0,.11-.74,3.1,3.1,0,0,0-6.2,0,3.44,3.44,0,0,0,.1.74.92.92,0,0,1-.89,1.16H27.5ZM18.77,56.13H37.62A11.61,11.61,0,0,1,51.84,38.77v-24H45v2a.92.92,0,0,1-.92.92H26.57a.92.92,0,0,1-.92-.92v-2H18.77Zm38.08-6.76a9.79,9.79,0,1,0-9.79,9.78,9.8,9.8,0,0,0,9.79-9.78Zm-4.69-3.85L46.5,50.94l-3.83-3.06a.93.93,0,0,0-1.16,1.45L46,52.9a.93.93,0,0,0,1.22-.06l6.24-6a.92.92,0,0,0-1.28-1.33Zm0,0"/></svg>