<svg id="Layer_1" data-name="Layer 1" xmlns="http://www.w3.org/2000/svg" xmlns:xlink="http://www.w3.org/1999/xlink" viewBox="0 0 74 57"><defs><style>.cls-1{fill:none;}.cls-2{clip-path:url(#clip-path);}.cls-3{fill:#fff;}.cls-4{fill:#4db6ac;}.cls-5{fill:#009688;}.cls-6{fill:#439e96;}.cls-7{fill:#008376;}</style><clipPath id="clip-path"><rect class="cls-1" x="14.28" y="8.86" width="46.72" height="39.28"/></clipPath></defs><g class="cls-2"><path class="cls-3" d="M54.09,47.19,60.91,29a1.55,1.55,0,0,0,0-1L54.09,9.81a1.46,1.46,0,0,0-1.36-1H44.94a1.47,1.47,0,0,0-1.2.63,1.5,1.5,0,0,0-.16,1.36L50.19,28.5,43.57,46.15l-.09.52a1.51,1.51,0,0,0,.26.84,1.47,1.47,0,0,0,1.2.63h7.79a1.46,1.46,0,0,0,1.36-1Zm0,0"/><path class="cls-4" d="M24.89,47.19,31.71,29a1.55,1.55,0,0,0,0-1L24.89,9.81a1.46,1.46,0,0,0-1.36-1H15.74a1.47,1.47,0,0,0-1.2.63,1.5,1.5,0,0,0-.16,1.36L21,28.5,14.38,46.14l-.1.53a1.51,1.51,0,0,0,.26.84,1.47,1.47,0,0,0,1.2.63h7.79a1.46,1.46,0,0,0,1.36-1Zm0,0"/></g><path class="cls-5" d="M39.49,47.19,46.31,29a1.55,1.55,0,0,0,0-1L39.49,9.81a1.46,1.46,0,0,0-1.36-1H30.34a1.47,1.47,0,0,0-1.2.63A1.5,1.5,0,0,0,29,10.85L35.59,28.5,29,46.14l-.1.53a1.51,1.51,0,0,0,.26.84,1.47,1.47,0,0,0,1.2.63h7.79a1.46,1.46,0,0,0,1.36-1Zm0,0"/><path class="cls-3" d="M61,28.5h0a1.48,1.48,0,0,0-.09-.51L54.09,9.81a1.46,1.46,0,0,0-1.36-1H44.94a1.47,1.47,0,0,0-1.2.63,1.51,1.51,0,0,0-.26.84,1.34,1.34,0,0,0,.1.52L50.19,28.5Zm0,0"/><path class="cls-6" d="M31.8,28.5a1.54,1.54,0,0,0-.09-.52L24.89,9.81a1.46,1.46,0,0,0-1.36-1H15.74a1.47,1.47,0,0,0-1.2.63,1.51,1.51,0,0,0-.17,1.36L21,28.5Zm0,0"/><path class="cls-7" d="M46.4,28.5a1.54,1.54,0,0,0-.09-.52L39.49,9.81a1.46,1.46,0,0,0-1.36-1H30.34a1.47,1.47,0,0,0-1.2.63A1.51,1.51,0,0,0,29,10.85L35.59,28.5Zm0,0"/></svg>